<svg xmlns="http://www.w3.org/2000/svg" viewBox="0 0 200 250">
  <rect width="200" height="250" rx="16" fill="#FFFFF0"/>
  <!-- 地面 -->
  <rect x="0" y="200" width="200" height="50" rx="0" fill="#90EE90" opacity="0.2"/>
  <!-- 围栏 -->
  <rect x="30" y="60" width="140" height="140" rx="4" fill="none" stroke="#8D6E63" stroke-width="4"/>
  <line x1="75" y1="60" x2="75" y2="200" stroke="#8D6E63" stroke-width="3"/>
  <line x1="125" y1="60" x2="125" y2="200" stroke="#8D6E63" stroke-width="3"/>
  <line x1="30" y1="110" x2="75" y2="110" stroke="#8D6E63" stroke-width="3"/>
  <line x1="75" y1="110" x2="125" y2="110" stroke="#8D6E63" stroke-width="3"/>
  <line x1="125" y1="110" x2="170" y2="110" stroke="#8D6E63" stroke-width="3"/>
  <!-- 羊 -->
  <ellipse cx="100" cy="155" rx="22" ry="16" fill="#F5F5F5" stroke="#ddd" stroke-width="1"/>
  <circle cx="100" cy="138" r="14" fill="#F5F5F5" stroke="#ddd" stroke-width="1"/>
  <ellipse cx="93" cy="135" rx="4" ry="6" fill="#F5DEB3" transform="rotate(-15 93 135)"/>
  <ellipse cx="107" cy="135" rx="4" ry="6" fill="#F5DEB3" transform="rotate(15 107 135)"/>
  <circle cx="96" cy="136" r="2" fill="#333"/>
  <circle cx="104" cy="136" r="2" fill="#333"/>
  <ellipse cx="80" cy="160" rx="4" ry="7" fill="#ddd"/>
  <ellipse cx="120" cy="160" rx="4" ry="7" fill="#ddd"/>
</svg>
