<svg xmlns="http://www.w3.org/2000/svg" viewBox="0 0 300 300" width="300" height="300"><defs><linearGradient id="g22825"><stop offset="0%" stop-color="#F2F3F4"/><stop offset="100%" stop-color="white"/></linearGradient></defs><rect width="300" height="300" rx="24" fill="url(#g22825)"/><rect x="14" y="14" width="272" height="272" rx="18" fill="none" stroke="#F2F3F4" stroke-width="2" stroke-opacity="0.5"/><rect x="25" y="8" width="250" height="250" rx="8" fill="white" fill-opacity="0.85" stroke="#ddd" stroke-width="1.5"/><line x1="25" y1="133" x2="275" y2="133" stroke="#e8e8e8" stroke-width="1" stroke-dasharray="3,3"/><line x1="150" y1="8" x2="150" y2="258" stroke="#e8e8e8" stroke-width="1" stroke-dasharray="3,3"/><text x="150" y="141" text-anchor="middle" dominant-baseline="central" font-size="150" font-weight="400" fill="#2D3436" font-family="STKaiti,KaiTi,SIMKAI,楷体,Noto Serif SC,serif" letter-spacing="2">天</text><rect x="20" y="274" width="260" height="70" rx="10" fill="white" fill-opacity="0.65"/><rect x="60" y="276" width="70" height="22" rx="7" fill="white" fill-opacity="0.9" stroke="#e0e0e0" stroke-width="1"/><text x="95" y="287" text-anchor="middle" font-size="20" fill="#333" font-family="PingFang SC,Microsoft YaHei,SimHei,黑体,sans-serif" font-weight="500">天空</text><rect x="170" y="276" width="70" height="22" rx="7" fill="white" fill-opacity="0.9" stroke="#e0e0e0" stroke-width="1"/><text x="205" y="287" text-anchor="middle" font-size="20" fill="#333" font-family="PingFang SC,Microsoft YaHei,SimHei,黑体,sans-serif" font-weight="500">天上</text><rect x="60" y="306" width="70" height="22" rx="7" fill="white" fill-opacity="0.9" stroke="#e0e0e0" stroke-width="1"/><text x="95" y="317" text-anchor="middle" font-size="20" fill="#333" font-family="PingFang SC,Microsoft YaHei,SimHei,黑体,sans-serif" font-weight="500">今天</text><rect x="170" y="306" width="70" height="22" rx="7" fill="white" fill-opacity="0.9" stroke="#e0e0e0" stroke-width="1"/><text x="205" y="317" text-anchor="middle" font-size="20" fill="#333" font-family="PingFang SC,Microsoft YaHei,SimHei,黑体,sans-serif" font-weight="500">每天</text><rect x="60" y="336" width="70" height="22" rx="7" fill="white" fill-opacity="0.9" stroke="#e0e0e0" stroke-width="1"/><text x="95" y="347" text-anchor="middle" font-size="20" fill="#333" font-family="PingFang SC,Microsoft YaHei,SimHei,黑体,sans-serif" font-weight="500">白天</text></svg>